<svg data-name="Layer 1" xmlns="http://www.w3.org/2000/svg" viewBox="0 0 654.44 332.48"><defs><style>.cls-1{fill:#ff9b00;}.cls-2{fill:#65a0ff;}.cls-3{fill:#3dd29e;}.cls-4{fill:#f40000;}.cls-5{fill:#a700a9;}.cls-6{fill:#dadf00;}.cls-7{fill:#ff6b0a;}.cls-8{fill:#0bccef;}.cls-9{fill:#addc0e;}.cls-10{fill:#ff3597;}.cls-11{fill:#9572ff;}.cls-12{fill:#fd0;}.cls-13{fill:#0c2340;}</style></defs><title>logo</title><path class="cls-1" d="M563.73,19.67c-3-2.31-5.14-1.1-4.66,2.69A68.17,68.17,0,0,0,566.82,45h0c3.31,5.73,8.83,8.75,12.33,6.73s3.65-8.3.34-14a68.12,68.12,0,0,0-15.76-18" transform="translate(-26.83 -15.04)"/><path class="cls-2" d="M637.22,157.72c3,2.31,5.14,1.09,4.66-2.69a68.39,68.39,0,0,0-7.75-22.68c-3.31-5.73-8.83-8.74-12.34-6.72s-3.65,8.31-.34,14a68.34,68.34,0,0,0,15.77,18" transform="translate(-26.83 -15.04)"/><path class="cls-3" d="M559.07,155c-0.48,3.79,1.62,5,4.66,2.69a68.25,68.25,0,0,0,15.76-18c3.31-5.74,3.16-12-.34-14s-9,1-12.33,6.72A68.3,68.3,0,0,0,559.07,155" transform="translate(-26.83 -15.04)"/><path class="cls-4" d="M641.88,22.36c0.48-3.79-1.61-5-4.66-2.69a68.29,68.29,0,0,0-15.77,18h0c-3.31,5.73-3.16,12,.34,14s9-1,12.34-6.73a68.32,68.32,0,0,0,7.75-22.67" transform="translate(-26.83 -15.04)"/><path class="cls-5" d="M678.63,91.38c3.52-1.48,3.52-3.9,0-5.38a68.37,68.37,0,0,0-23.51-4.63c-6.63,0-12,3.28-12,7.32s5.37,7.32,12,7.32a68.28,68.28,0,0,0,23.51-4.63" transform="translate(-26.83 -15.04)"/><path class="cls-6" d="M522.33,86c-3.53,1.48-3.53,3.9,0,5.38A68.21,68.21,0,0,0,545.83,96h0c6.62,0,12-3.28,12-7.32s-5.37-7.32-12-7.32A68.3,68.3,0,0,0,522.33,86" transform="translate(-26.83 -15.04)"/><path class="cls-7" d="M603.17,17.68c-1.49-3.52-3.9-3.52-5.39,0,0,0-7.85,18.71-7.85,36.68h0c0,9.54,4.71,17.28,10.55,17.28S611,63.91,611,54.37c0-18-7.85-36.69-7.85-36.69" transform="translate(-26.83 -15.04)"/><path class="cls-8" d="M597.78,159.71c1.48,3.52,3.9,3.52,5.39,0,0,0,7.84-18.7,7.84-36.69h0c0-9.54-4.72-17.27-10.54-17.27s-10.55,7.73-10.55,17.27c0,18,7.85,36.69,7.85,36.69" transform="translate(-26.83 -15.04)"/><path class="cls-9" d="M537.63,121.87c-2.31,3-1.1,5.14,2.7,4.65,0,0,20.12-2.55,35.69-11.53,8.27-4.77,12.61-12.73,9.69-17.77s-12-5.26-20.24-.5c-15.57,9-27.84,25.15-27.84,25.15" transform="translate(-26.83 -15.04)"/><path class="cls-10" d="M663.32,55.52c2.31-3,1.1-5.14-2.69-4.66,0,0-20.12,2.55-35.69,11.54-8.27,4.77-12.61,12.73-9.7,17.77s12,5.27,20.24.5c15.57-9,27.84-25.15,27.84-25.15" transform="translate(-26.83 -15.04)"/><path class="cls-11" d="M660.63,126.52c3.79,0.48,5-1.62,2.69-4.65,0,0-12.27-16.15-27.83-25.14h0c-8.27-4.76-17.32-4.54-20.23.5s1.42,13,9.69,17.76c15.57,9,35.7,11.54,35.7,11.54" transform="translate(-26.83 -15.04)"/><path class="cls-12" d="M540.32,50.86c-3.79-.48-5,1.62-2.69,4.66,0,0,12.27,16.16,27.83,25.14h0c8.26,4.77,17.32,4.55,20.23-.5s-1.42-13-9.69-17.76c-15.56-9-35.69-11.54-35.69-11.54" transform="translate(-26.83 -15.04)"/><path class="cls-13" d="M26.83,274.88v-14.6l71.09-96.87c6-8.17,12.67-17,18.26-24.27H31.12v-14.6h103.1v14.6L63.12,236c-6,8.16-12.68,17-18.26,24.27h89.35v14.6H26.83Z" transform="translate(-26.83 -15.04)"/><path class="cls-13" d="M185.11,173.73c-16.75,0-28.35,12-30.29,37.15h60.79c-1.29-21.9-10.74-37.15-30.5-37.15h0ZM230,224H154.82c1.5,24.06,12.89,39.31,31.36,39.31,13.1,0,20.83-3.87,31.14-10.74l7.52,11.6c-13.54,8.59-23.41,13.1-40.38,13.1-20.62,0-45.75-15-45.75-59.29,0-35.86,19.76-58.2,46.6-58.2,29.43,0,45.32,23.2,45.32,55.42A48.92,48.92,0,0,1,230,224h0Z" transform="translate(-26.83 -15.04)"/><path class="cls-13" d="M316.13,274.88V209c0-24.28-8.59-35.23-26.64-35.23-15.68,0-27.92,10.52-27.92,35.23v65.93H245.46V162.12h16.11v13.75c6.44-9.44,17-16.1,31.15-16.1,23.84,0,39.52,14,39.52,46.39v68.73h-16.1Z" transform="translate(-26.83 -15.04)"/><path class="cls-13" d="M353.06,274.88V162.12h16.11V274.88H353.06Zm8.38-132.94a11.5,11.5,0,1,1,11.16-11.38,11.42,11.42,0,0,1-11.16,11.38h0Z" transform="translate(-26.83 -15.04)"/><path class="cls-13" d="M411.27,175.66v73.45c0,10.1,2.79,13.53,11.38,13.53a37.49,37.49,0,0,0,15.9-3.22l-1.07,14a50.84,50.84,0,0,1-20.84,3.87c-14,0-21.48-6.87-21.48-25.56v-76h-14V162.12h14V127.33l16.11-9v43.81h27.93v13.54H411.27Z" transform="translate(-26.83 -15.04)"/><path class="cls-13" d="M526,274.88V209c0-24.28-8.6-35.23-26.64-35.23-15.68,0-27.93,10.52-27.93,35.23v65.93H455.29V127.33l16.11-9v57.55c6.45-9.44,17-16.1,31.15-16.1,23.84,0,39.52,14,39.52,46.39v68.73H526Z" transform="translate(-26.83 -15.04)"/><polygon class="cls-13" points="0 323.36 0 290.31 3.68 290.31 3.68 323.36 0 323.36 0 323.36"/><path class="cls-13" d="M52.18,338.41V323.91c0-5.34-1.89-7.74-5.86-7.74-3.45,0-6.14,2.32-6.14,7.74v14.49H36.65V313.62h3.54v3A8,8,0,0,1,47,313.11c5.24,0,8.69,3.06,8.69,10.19v15.11H52.18Z" transform="translate(-26.83 -15.04)"/><path class="cls-13" d="M65.36,316.59v16.15c0,2.22.61,3,2.5,3a8.22,8.22,0,0,0,3.49-.71l-0.24,3.07a11.25,11.25,0,0,1-4.58.85c-3.06,0-4.72-1.51-4.72-5.62V316.59H58.75v-3h3.07V306l3.54-2v9.63h6.14v3H65.36Z" transform="translate(-26.83 -15.04)"/><path class="cls-13" d="M84,316.17c-3.69,0-6.23,2.64-6.65,8.17H90.66c-0.28-4.81-2.36-8.17-6.71-8.17h0Zm9.87,11.05H77.31c0.32,5.28,2.83,8.64,6.89,8.64,2.88,0,4.58-.85,6.85-2.36l1.65,2.55c-3,1.89-5.14,2.88-8.87,2.88-4.54,0-10.05-3.3-10.05-13,0-7.89,4.34-12.79,10.24-12.79,6.47,0,10,5.09,10,12.18a10.86,10.86,0,0,1-.14,1.94h0Z" transform="translate(-26.83 -15.04)"/><polygon class="cls-13" points="71.63 323.36 71.63 290.93 75.17 288.95 75.17 323.36 71.63 323.36 71.63 323.36"/><polygon class="cls-13" points="81.12 323.36 81.12 290.93 84.66 288.95 84.66 323.36 81.12 323.36 81.12 323.36"/><path class="cls-13" d="M117.43,338.41V313.62H121v24.78h-3.54Zm1.85-29.22a2.53,2.53,0,1,1,2.46-2.5,2.51,2.51,0,0,1-2.46,2.5h0Z" transform="translate(-26.83 -15.04)"/><path class="cls-13" d="M141.7,319.9a8.09,8.09,0,0,0-6.7-3.73c-4.1,0-6.13,3.54-6.13,10.2,0,6.23,2.36,9.49,6.28,9.49,2.64,0,4.82-1.42,6.56-3.59V319.9h0Zm-9,27.62-1.14-2.69c8.26-.24,10.15-2.41,10.15-8.18v-1.27a9.93,9.93,0,0,1-7.46,3.54c-5,0-8.87-3.78-8.87-12.51s4.16-13.31,9.35-13.31a8.78,8.78,0,0,1,7,3.3v-2.79h3.54v22.56c0,7.46-3.35,11.06-12.56,11.34h0Z" transform="translate(-26.83 -15.04)"/><path class="cls-13" d="M159.6,316.17c-3.69,0-6.23,2.64-6.66,8.17H166.3c-0.28-4.81-2.36-8.17-6.71-8.17h0Zm9.87,11.05H152.94c0.33,5.28,2.84,8.64,6.9,8.64a11,11,0,0,0,6.84-2.36l1.65,2.55c-3,1.89-5.14,2.88-8.87,2.88-4.53,0-10.05-3.3-10.05-13,0-7.89,4.35-12.79,10.25-12.79,6.46,0,10,5.09,10,12.18a11.29,11.29,0,0,1-.14,1.94h0Z" transform="translate(-26.83 -15.04)"/><path class="cls-13" d="M189.39,338.41V323.91c0-5.34-1.89-7.74-5.86-7.74-3.45,0-6.14,2.32-6.14,7.74v14.49h-3.53V313.62h3.53v3a8,8,0,0,1,6.85-3.53c5.24,0,8.69,3.06,8.69,10.19v15.11h-3.54Z" transform="translate(-26.83 -15.04)"/><path class="cls-13" d="M202.57,316.59v16.15c0,2.22.62,3,2.5,3a8.25,8.25,0,0,0,3.49-.71l-0.23,3.07a11.29,11.29,0,0,1-4.58.85c-3.07,0-4.72-1.51-4.72-5.62V316.59H196v-3H199V306l3.54-2v9.63h6.14v3h-6.14Z" transform="translate(-26.83 -15.04)"/><path class="cls-13" d="M237,338.41H233l-11.24-33.05h3.87L233,328c0.66,2,1.7,5.34,2,6.52,0.33-1.19,1.47-4.68,2.07-6.62l7.41-22.52h3.78L237,338.41h0Z" transform="translate(-26.83 -15.04)"/><path class="cls-13" d="M258.24,316.17c-3.68,0-6.23,2.64-6.66,8.17h13.37c-0.29-4.81-2.37-8.17-6.71-8.17h0Zm9.86,11.05H251.58c0.33,5.28,2.83,8.64,6.9,8.64a11,11,0,0,0,6.84-2.36l1.66,2.55c-3,1.89-5.15,2.88-8.88,2.88-4.53,0-10.05-3.3-10.05-13,0-7.89,4.34-12.79,10.24-12.79,6.47,0,10,5.09,10,12.18a10.89,10.89,0,0,1-.14,1.94h0Z" transform="translate(-26.83 -15.04)"/><path class="cls-13" d="M288,338.41V323.91c0-5.34-1.89-7.74-5.86-7.74-3.44,0-6.14,2.32-6.14,7.74v14.49H272.5V306l3.54-2v12.65a8,8,0,0,1,6.85-3.53c5.25,0,8.69,3.06,8.69,10.19v15.11H288Z" transform="translate(-26.83 -15.04)"/><path class="cls-13" d="M297.15,338.41V313.62h3.54v24.78h-3.54ZM299,309.18a2.53,2.53,0,1,1,2.46-2.5,2.51,2.51,0,0,1-2.46,2.5h0Z" transform="translate(-26.83 -15.04)"/><path class="cls-13" d="M321.45,318.67a8.25,8.25,0,0,0-5.94-2.51c-3.87,0-6.85,3.49-6.85,9.68s2.6,10,7,10a7.69,7.69,0,0,0,5.71-2.64l2.12,2.27a10.47,10.47,0,0,1-8,3.44c-5.43,0-10.44-4.16-10.44-12.8,0-9.16,5.48-13,10.67-13a11.51,11.51,0,0,1,7.83,2.92l-2.13,2.64h0Z" transform="translate(-26.83 -15.04)"/><polygon class="cls-13" points="300.82 323.36 300.82 290.93 304.36 288.95 304.36 323.36 300.82 323.36 300.82 323.36"/><path class="cls-13" d="M345.77,316.17c-3.68,0-6.23,2.64-6.65,8.17h13.36c-0.28-4.81-2.36-8.17-6.71-8.17h0Zm9.87,11.05H339.12c0.33,5.28,2.83,8.64,6.89,8.64a11.06,11.06,0,0,0,6.85-2.36l1.66,2.55c-3,1.89-5.15,2.88-8.88,2.88-4.53,0-10.05-3.3-10.05-13,0-7.89,4.34-12.79,10.24-12.79,6.47,0,10,5.09,10,12.18a11.77,11.77,0,0,1-.14,1.94h0Z" transform="translate(-26.83 -15.04)"/><path class="cls-13" d="M379.72,338.93a15.74,15.74,0,0,1-11.09-4.58l2.45-2.74a12.57,12.57,0,0,0,8.79,4c4.39,0,7.13-2.16,7.13-5.67,0-3.07-1.84-4.81-7.89-7-7.13-2.55-9.54-4.87-9.54-9.62,0-5.29,4.15-8.46,10.35-8.46A14.8,14.8,0,0,1,390,308.38l-2.36,2.87a11.54,11.54,0,0,0-7.94-3.06c-4.53,0-6.42,2.27-6.42,4.86s1.23,4.3,7.84,6.65c7.32,2.65,9.58,5.11,9.58,10,0,5.2-4.06,9.21-11,9.21h0Z" transform="translate(-26.83 -15.04)"/><path class="cls-13" d="M404.6,316.17c-4.29,0-7.18,3.27-7.18,9.78s2.88,9.92,7.18,9.92,7.23-3.4,7.23-9.92-2.93-9.78-7.23-9.78h0Zm-0.09,22.76c-6,0-10.67-4.48-10.67-12.9s4.82-12.92,10.86-12.92,10.66,4.34,10.66,12.74-4.81,13.07-10.85,13.07h0Z" transform="translate(-26.83 -15.04)"/><polygon class="cls-13" points="392.94 323.36 392.94 290.93 396.48 288.95 396.48 323.36 392.94 323.36 392.94 323.36"/><path class="cls-13" d="M444.4,338.41v-3a8,8,0,0,1-6.84,3.54c-5.24,0-8.69-3.07-8.69-10.2v-15.1h3.54v14.5c0,5.33,1.89,7.74,5.86,7.74,3.44,0,6.13-2.31,6.13-7.74v-14.5h3.54v24.78H444.4Z" transform="translate(-26.83 -15.04)"/><path class="cls-13" d="M458,316.59v16.15c0,2.22.61,3,2.49,3A8.26,8.26,0,0,0,464,335l-0.24,3.07a11.29,11.29,0,0,1-4.58.85c-3.07,0-4.72-1.51-4.72-5.62V316.59h-3.07v-3h3.07V306l3.55-2v9.63h6.13v3H458Z" transform="translate(-26.83 -15.04)"/><path class="cls-13" d="M468.87,338.41V313.62h3.54v24.78h-3.54Zm1.84-29.22a2.53,2.53,0,1,1,2.46-2.5,2.54,2.54,0,0,1-2.46,2.5h0Z" transform="translate(-26.83 -15.04)"/><path class="cls-13" d="M487.56,316.17c-4.3,0-7.17,3.27-7.17,9.78s2.87,9.92,7.17,9.92,7.22-3.4,7.22-9.92-2.92-9.78-7.22-9.78h0Zm-0.1,22.76c-6,0-10.67-4.48-10.67-12.9s4.82-12.92,10.86-12.92,10.67,4.34,10.67,12.74-4.82,13.07-10.87,13.07h0Z" transform="translate(-26.83 -15.04)"/><path class="cls-13" d="M518,338.41V323.91c0-5.34-1.89-7.74-5.86-7.74-3.44,0-6.13,2.32-6.13,7.74v14.49h-3.54V313.62H506v3a8,8,0,0,1,6.84-3.53c5.24,0,8.69,3.06,8.69,10.19v15.11H518Z" transform="translate(-26.83 -15.04)"/><path class="cls-13" d="M533.74,338.93a13.92,13.92,0,0,1-8.74-3.17l2.08-2.59a10.19,10.19,0,0,0,6.75,2.74c3.4,0,5-1.42,5-3.83,0-2-1.47-3.16-5.86-5-5-2.12-7-3.64-7-7.6,0-3.79,3.27-6.33,7.75-6.33a12.21,12.21,0,0,1,7.93,2.63l-2,2.6a8.93,8.93,0,0,0-6.18-2.23c-2.6,0-4.11,1.28-4.11,3.07,0,2.08,1.27,2.92,5.48,4.81,4.67,2.12,7.41,3.49,7.41,7.93,0,4.87-4.2,7-8.5,7h0Z" transform="translate(-26.83 -15.04)"/></svg>